<svg width="10" height="10" viewBox="0 0 10 10" fill="none" xmlns="http://www.w3.org/2000/svg">
<path d="M3.33336 5.83415C3.21531 5.83415 3.11628 5.79415 3.03628 5.71415C2.95628 5.63415 2.91642 5.53527 2.9167 5.41749C2.9167 5.29943 2.9567 5.2004 3.0367 5.1204C3.1167 5.0404 3.21559 5.00054 3.33336 5.00082C3.45142 5.00082 3.55045 5.04082 3.63045 5.12082C3.71045 5.20082 3.75031 5.29971 3.75003 5.41749C3.75003 5.53554 3.71003 5.63457 3.63003 5.71457C3.55003 5.79457 3.45114 5.83443 3.33336 5.83415ZM5.00003 5.83415C4.88197 5.83415 4.78295 5.79415 4.70295 5.71415C4.62295 5.63415 4.58308 5.53527 4.58336 5.41749C4.58336 5.29943 4.62336 5.2004 4.70336 5.1204C4.78336 5.0404 4.88225 5.00054 5.00003 5.00082C5.11808 5.00082 5.21711 5.04082 5.29711 5.12082C5.37711 5.20082 5.41697 5.29971 5.41669 5.41749C5.41669 5.53554 5.37669 5.63457 5.29669 5.71457C5.2167 5.79457 5.11781 5.83443 5.00003 5.83415ZM6.66669 5.83415C6.54864 5.83415 6.44961 5.79415 6.36961 5.71415C6.28961 5.63415 6.24975 5.53527 6.25003 5.41749C6.25003 5.29943 6.29003 5.2004 6.37003 5.1204C6.45003 5.0404 6.54892 5.00054 6.66669 5.00082C6.78475 5.00082 6.88378 5.04082 6.96378 5.12082C7.04378 5.20082 7.08364 5.29971 7.08336 5.41749C7.08336 5.53554 7.04336 5.63457 6.96336 5.71457C6.88336 5.79457 6.78447 5.83443 6.66669 5.83415ZM2.08336 9.16749C1.8542 9.16749 1.65795 9.08582 1.49461 8.92249C1.33128 8.75915 1.24975 8.56304 1.25003 8.33415V2.50082C1.25003 2.27166 1.3317 2.07541 1.49503 1.91207C1.65836 1.74874 1.85447 1.66721 2.08336 1.66749H2.50003V1.24041C2.50003 1.12235 2.54003 1.02513 2.62003 0.94874C2.70003 0.872351 2.79892 0.834157 2.9167 0.834157C3.03475 0.834157 3.13378 0.874157 3.21378 0.954157C3.29378 1.03416 3.33364 1.13305 3.33336 1.25082V1.66749H6.66669V1.24041C6.66669 1.12235 6.70669 1.02513 6.78669 0.94874C6.86669 0.872351 6.96558 0.834157 7.08336 0.834157C7.20142 0.834157 7.30044 0.874157 7.38044 0.954157C7.46044 1.03416 7.5003 1.13305 7.50003 1.25082V1.66749H7.91669C8.14586 1.66749 8.34211 1.74916 8.50544 1.91249C8.66878 2.07582 8.7503 2.27193 8.75003 2.50082V8.33415C8.75003 8.56332 8.66836 8.75957 8.50503 8.9229C8.34169 9.08624 8.14558 9.16776 7.91669 9.16749H2.08336ZM2.08336 8.33415H7.91669V4.16749H2.08336V8.33415ZM2.08336 3.33416H7.91669V2.50082H2.08336V3.33416Z" fill="#223484"/>
</svg>
