<svg width="11" height="11" viewBox="0 0 11 11" fill="none" xmlns="http://www.w3.org/2000/svg">
<g clip-path="url(#clip0_1_2299)">
<path d="M5.45557 0.891978C5.37672 0.89197 5.29787 0.894026 5.21902 0.897526L5.2361 1.26842C5.30855 1.26513 5.38101 1.26328 5.45559 1.26329C7.98726 1.26351 10.0375 3.24813 10.0376 5.69877C10.0378 8.1494 7.98788 10.1336 5.45621 10.1334C3.54681 10.1332 1.91116 9.00473 1.22272 7.39773L1.81151 7.22657L0.779403 6.51893L0.37352 7.64313L0.854059 7.50496C1.59216 9.26255 3.37635 10.5045 5.45624 10.5047C8.19675 10.505 10.4214 8.35159 10.4212 5.6988C10.421 3.04601 8.19608 0.892226 5.45557 0.891978ZM4.79921 0.934C4.51578 0.970073 4.24302 1.02884 3.97664 1.10885L4.09601 1.4614C4.33894 1.3884 4.59253 1.33458 4.85038 1.3016L4.79921 0.934ZM3.58454 1.24579C3.3203 1.34994 3.06885 1.47513 2.83018 1.6195L3.03265 1.93328C3.25214 1.80045 3.48441 1.68516 3.72734 1.58947L3.58454 1.24579ZM2.48071 1.85092C2.25701 2.01322 2.0478 2.19344 1.85529 2.38967L2.1334 2.64301C2.31027 2.46212 2.50418 2.29628 2.70875 2.14675L2.60645 2.01121L2.48071 1.85092ZM3.96179 2.02804L3.86805 2.38779L8.49248 3.53266L8.58622 3.17374L3.96179 2.02804ZM1.5787 2.69659C1.40418 2.90699 1.24757 3.13388 1.1112 3.37109L1.44472 3.55265C1.57065 3.33194 1.71512 3.12361 1.87642 2.92766L1.5787 2.69659ZM4.29855 2.87837C4.21548 3.41469 4.3583 4.01705 4.60127 4.51215C4.73768 4.78858 4.90392 5.03201 5.06802 5.20943C5.15753 5.30639 5.24704 5.38066 5.32802 5.4343L5.21298 5.8716C5.11495 5.87985 4.99988 5.90459 4.87202 5.9479C4.63974 6.02626 4.37337 6.16239 4.11766 6.34183C3.65738 6.66359 3.23546 7.12356 3.04371 7.63306L6.61325 8.51833C6.69633 7.98201 6.5535 7.37965 6.31053 6.88455C6.17413 6.60812 6.00789 6.36469 5.84379 6.18727C5.75428 6.09031 5.66477 6.01604 5.58378 5.9624L5.69883 5.52509C5.79472 5.51479 5.91193 5.49211 6.03979 5.4488C6.27207 5.37044 6.53844 5.23431 6.79415 5.05487C7.25443 4.73311 7.67634 4.27314 7.8681 3.76364L4.29855 2.87837ZM0.921774 3.7362C0.808207 3.98372 0.715099 4.23951 0.644794 4.5056L1.0173 4.59228C1.08186 4.34887 1.1673 4.11371 1.27191 3.88681L0.921774 3.7362ZM0.558728 4.90372C0.514207 5.16157 0.490571 5.42767 0.49059 5.6979L0.490591 5.71646L0.874178 5.71237L0.874177 5.69793C0.874159 5.44833 0.895878 5.20286 0.936991 4.96358L0.558728 4.90372ZM2.41933 7.86404L2.32559 8.22296L6.95002 9.36824L7.04376 9.00932L2.41933 7.86404Z" fill="#223484"/>
</g>
<defs>
<clipPath id="clip0_1_2299">
<rect width="10.1112" height="10.1928" rx="2" transform="matrix(1.07909 9.78521e-05 7.57088e-05 1.07909 0 0)" fill="white"/>
</clipPath>
</defs>
</svg>
