<svg width="10" height="11" viewBox="0 0 10 11" fill="none" xmlns="http://www.w3.org/2000/svg">
<g clip-path="url(#clip0_1_2334)">
<path d="M8.34811 4.10683C8.70122 4.10702 8.98738 3.80104 8.98727 3.4234C8.98716 3.04576 8.70082 2.73947 8.34771 2.73928C7.9946 2.73909 7.70844 3.04508 7.70855 3.42271C7.70866 3.80035 7.995 4.10664 8.34811 4.10683Z" fill="#223484"/>
<path d="M5.15361 9.91589L2.91585 9.91469L2.91566 9.23091L5.15342 9.23212C6.73999 9.23297 8.03014 7.85347 8.02965 6.15668L8.02925 4.78913L8.66861 4.78947L8.66901 6.15702C8.66961 8.23057 7.09247 9.91694 5.15361 9.91589Z" fill="#223484"/>
<path d="M4.51345 7.18015C3.63209 7.17967 2.91483 6.41243 2.91456 5.46985C2.91428 4.52727 3.6311 3.7608 4.51246 3.76127C5.39382 3.76175 6.11109 4.52899 6.11136 5.47157C6.11163 6.41415 5.39481 7.18062 4.51345 7.18015ZM4.51266 4.44505C3.98391 4.44476 3.55375 4.90471 3.55392 5.47019C3.55408 6.03567 3.9845 6.49609 4.51326 6.49637C5.04201 6.49666 5.47216 6.03671 5.472 5.47123C5.47183 4.90574 5.04141 4.44533 4.51266 4.44505Z" fill="#223484"/>
<path d="M0.677155 8.20311C1.03026 8.20329 1.31643 7.89729 1.31633 7.51966C1.31623 7.14202 1.0299 6.83574 0.676793 6.83556C0.323684 6.83538 0.0375135 7.14137 0.0376137 7.51901C0.0377139 7.89665 0.324046 8.20293 0.677155 8.20311Z" fill="#223484"/>
<path d="M0.998347 6.15312L0.358986 6.15273L0.358448 4.78518C0.357631 2.71164 1.93459 1.02536 3.87345 1.02652L6.11121 1.02786L6.11148 1.71164L3.87372 1.7103C2.28714 1.70935 0.99714 3.08878 0.997808 4.78557L0.998347 6.15312Z" fill="#223484"/>
</g>
<defs>
<clipPath id="clip0_1_2334">
<rect width="9.9746" height="10.9263" rx="2" transform="matrix(1.00129 0.00133584 0.00114831 1.00129 0 0)" fill="white"/>
</clipPath>
</defs>
</svg>
