<svg width="11" height="11" viewBox="0 0 11 11" fill="none" xmlns="http://www.w3.org/2000/svg">
<g clip-path="url(#clip0_1_2258)">
<path fill-rule="evenodd" clip-rule="evenodd" d="M6.32887 2.74934C6.32894 3.03379 6.24783 3.31126 6.0967 3.54356C5.94557 3.77586 5.73185 3.95154 5.48498 4.04642V5.041H6.75081C7.08653 5.041 7.4085 5.18587 7.64588 5.44373C7.88327 5.70159 8.01664 6.05133 8.01664 6.416V6.95225C8.29828 7.06038 8.53566 7.27318 8.68683 7.55304C8.838 7.8329 8.89321 8.16181 8.84272 8.48162C8.79222 8.80143 8.63927 9.09155 8.41089 9.3007C8.18251 9.50985 7.89341 9.62456 7.59469 9.62456C7.29598 9.62456 7.00688 9.50985 6.7785 9.3007C6.55012 9.09155 6.39716 8.80143 6.34667 8.48162C6.29617 8.16181 6.35139 7.8329 6.50256 7.55304C6.65372 7.27318 6.89111 7.06038 7.17275 6.95225V6.416C7.17275 6.29445 7.1283 6.17787 7.04917 6.09191C6.97004 6.00596 6.86272 5.95767 6.75081 5.95767H3.37527C3.26337 5.95767 3.15605 6.00596 3.07692 6.09191C2.99779 6.17787 2.95333 6.29445 2.95333 6.416V6.95225C3.23497 7.06038 3.47236 7.27318 3.62353 7.55304C3.77469 7.8329 3.82991 8.16181 3.77941 8.48162C3.72892 8.80143 3.57596 9.09155 3.34758 9.3007C3.1192 9.50985 2.83011 9.62456 2.53139 9.62456C2.23267 9.62456 1.94358 9.50985 1.7152 9.3007C1.48682 9.09155 1.33386 8.80143 1.28337 8.48162C1.23287 8.16181 1.28808 7.8329 1.43925 7.55304C1.59042 7.27318 1.8278 7.06038 2.10945 6.95225V6.416C2.10945 6.05133 2.24281 5.70159 2.4802 5.44373C2.71759 5.18587 3.03956 5.041 3.37527 5.041H4.6411V4.04642C4.42217 3.96247 4.22871 3.81475 4.08186 3.61942C3.93501 3.42409 3.84042 3.18866 3.80844 2.93888C3.77646 2.68909 3.80832 2.43456 3.90053 2.20311C3.99274 1.97167 4.14175 1.77222 4.33128 1.62656C4.52081 1.4809 4.74355 1.39465 4.97517 1.37723C5.20678 1.35982 5.43834 1.4119 5.64454 1.5278C5.85074 1.6437 6.02363 1.81894 6.14432 2.03438C6.26501 2.24981 6.32886 2.49715 6.32887 2.74934ZM5.06304 2.291C4.95114 2.291 4.84381 2.33929 4.76468 2.42525C4.68555 2.5112 4.6411 2.62778 4.6411 2.74934C4.6411 2.87089 4.68555 2.98747 4.76468 3.07343C4.84381 3.15938 4.95114 3.20767 5.06304 3.20767C5.17495 3.20767 5.28227 3.15938 5.3614 3.07343C5.44053 2.98747 5.48498 2.87089 5.48498 2.74934C5.48498 2.62778 5.44053 2.5112 5.3614 2.42525C5.28227 2.33929 5.17495 2.291 5.06304 2.291ZM2.53139 7.791C2.41948 7.791 2.31216 7.83929 2.23303 7.92525C2.1539 8.0112 2.10945 8.12778 2.10945 8.24934C2.10945 8.3709 2.1539 8.48747 2.23303 8.57343C2.31216 8.65938 2.41948 8.70767 2.53139 8.70767C2.6433 8.70767 2.75062 8.65938 2.82975 8.57343C2.90888 8.48747 2.95333 8.3709 2.95333 8.24934C2.95333 8.12778 2.90888 8.0112 2.82975 7.92525C2.75062 7.83929 2.6433 7.791 2.53139 7.791ZM7.59469 7.791C7.48279 7.791 7.37546 7.83929 7.29634 7.92525C7.21721 8.0112 7.17275 8.12778 7.17275 8.24934C7.17275 8.3709 7.21721 8.48747 7.29634 8.57343C7.37546 8.65938 7.48279 8.70767 7.59469 8.70767C7.7066 8.70767 7.81392 8.65938 7.89305 8.57343C7.97218 8.48747 8.01664 8.3709 8.01664 8.24934C8.01664 8.12778 7.97218 8.0112 7.89305 7.92525C7.81392 7.83929 7.7066 7.791 7.59469 7.791Z" fill="#223484"/>
</g>
<defs>
<clipPath id="clip0_1_2258">
<rect width="10.0912" height="10.9615" fill="white" transform="scale(1.00351)"/>
</clipPath>
</defs>
</svg>
